<?xml version="1.0" encoding="utf-8"?>
<!-- Generator: Adobe Illustrator 24.3.0, SVG Export Plug-In . SVG Version: 6.00 Build 0)  -->
<svg version="1.1" id="Layer_1" xmlns="http://www.w3.org/2000/svg" xmlns:xlink="http://www.w3.org/1999/xlink" x="0px" y="0px"
	 viewBox="0 0 421.2 360" style="enable-background:new 0 0 421.2 360;" xml:space="preserve">
<style type="text/css">
	.st0{fill:#5ABD78;}
	.st1{fill:#1B5EAC;}
</style>
<path class="st0" d="M357.57,242.32c-1.03-1.74-2.68-3.04-4.65-3.5c-4.46-1.04-9.26-1.66-14.4-1.66
	c-41.12,0-69.85,31.94-69.85,77.66c0,14.6,2.9,27.78,8.11,39.02c1.27,2.73,3.96,4.51,6.97,4.51h129.02c5.89,0,9.55-6.41,6.55-11.49
	L357.57,242.32z"/>
<path class="st1" d="M212.43,314.81c0-65.64,41.51-117.17,100.1-129.23c5.05-1.04,7.48-6.85,4.86-11.28L217.28,4.87
	c-2.95-4.99-10.16-4.99-13.11,0L2.12,346.86c-3,5.08,0.66,11.49,6.55,11.49h200.3c4.95,0,8.51-4.63,7.37-9.45
	C213.79,338.09,212.43,326.68,212.43,314.81z"/>
</svg>
