<?xml version="1.0" encoding="utf-8"?>
<!-- Generator: Adobe Illustrator 24.3.0, SVG Export Plug-In . SVG Version: 6.00 Build 0)  -->
<svg version="1.1" id="Layer_1" xmlns="http://www.w3.org/2000/svg" xmlns:xlink="http://www.w3.org/1999/xlink" x="0px" y="0px"
	 viewBox="0 0 864 191.85" style="enable-background:new 0 0 864 191.85;" xml:space="preserve">
<style type="text/css">
	.st0{fill:#FFFFFF;}
	.st1{fill:#5ABD78;}
	.st2{fill:#1B5EAC;}
</style>
<g>
	<path class="st0" d="M298.26,23.61h3.71c0.53,0,1.06,0.21,1.27,0.74l31.14,73.51c0.32,0.74,0,1.27-0.74,1.27h-6.25
		c-0.53,0-1.06-0.21-1.27-0.74l-6.67-15.68c-0.21-0.53-0.64-0.74-1.17-0.74h-36.33c-0.53,0-1.06,0.21-1.27,0.74L274,98.39
		c-0.21,0.53-0.64,0.74-1.17,0.74h-6.25c-0.74,0-1.06-0.53-0.74-1.27l31.14-73.51C297.2,23.82,297.73,23.61,298.26,23.61z
		 M285.54,74.13h29.13c0.74,0,1.06-0.53,0.74-1.27L300.9,38.01c-0.32-0.74-1.17-0.74-1.48,0L284.8,72.86
		C284.49,73.6,284.8,74.13,285.54,74.13z"/>
	<path class="st0" d="M344.01,19.37h6.14c0.53,0,0.85,0.32,0.85,0.85v78.07c0,0.53-0.32,0.85-0.85,0.85h-6.14
		c-0.53,0-0.85-0.32-0.85-0.85V20.22C343.17,19.69,343.48,19.37,344.01,19.37z"/>
	<path class="st0" d="M405.03,67.78v30.51c0,0.53-0.32,0.85-0.85,0.85h-6.04c-0.53,0-0.85-0.32-0.85-0.85V93.2
		c0-0.74-0.53-0.95-0.95-0.42c-3.71,3.71-11.76,6.67-18.22,6.67c-11.86,0-17.58-7.1-17.58-15.57c0-14.3,14.62-20.02,35.91-20.23
		c0.64,0,0.85-0.32,0.85-0.95c0-11.23-6.25-13.13-13.14-13.13c-5.51,0-13.45,2.54-16.84,4.56c-0.53,0.32-0.85,0.11-1.06-0.42
		l-1.06-4.03c-0.32-0.53-0.11-0.64,0.32-0.95c3.81-2.54,12.6-5.72,20.44-5.72C404.71,42.99,405.03,57.19,405.03,67.78z
		 M396.87,86.85c0.42-0.42,0.42-0.64,0.42-0.95V70.11c0-0.53-0.32-0.85-0.85-0.85c-12.39,0-27.86,3.07-27.86,14.09
		c0,6.04,4.66,9.96,11.86,9.96C384.37,93.31,391.15,91.82,396.87,86.85z"/>
	<path class="st0" d="M451.31,46.7l-1.38,5.83c-0.11,0.64-0.64,0.74-1.06,0.53c-1.7-1.06-4.45-2.33-9-2.33c-7.42,0-16,4.66-16,16.52
		v31.04c0,0.53-0.32,0.85-0.85,0.85h-6.14c-0.53,0-0.85-0.32-0.85-0.85V44.16c0-0.53,0.32-0.85,0.85-0.85h6.14
		c0.53,0,0.85,0.32,0.85,0.85v6.57c0,0.74,0.53,0.95,0.95,0.32c4.45-5.83,10.7-8.05,15.89-8.05c4.66,0,8.47,1.59,10.06,2.54
		C451.31,45.85,451.42,46.28,451.31,46.7z"/>
	<path class="st0" d="M546.01,68.2v30.08c0,0.53-0.32,0.85-0.85,0.85h-6.04c-0.53,0-0.85-0.32-0.85-0.85V68.2
		c0-12.18-4.66-18.64-14.72-18.64c-9.96,0-16.63,8.16-16.95,16.31v32.41c0,0.53-0.32,0.85-0.85,0.85h-6.04
		c-0.53,0-0.85-0.32-0.85-0.85V68.2c0-7.31-2.65-18.64-14.62-18.64c-9.43,0-15.25,6.36-16.31,11.65v37.07
		c0,0.53-0.32,0.85-0.85,0.85h-6.04c-0.53,0-0.85-0.32-0.85-0.85V44.16c0-0.53,0.32-0.85,0.85-0.85h6.04c0.53,0,0.85,0.32,0.85,0.85
		v6.14c0,0.74,0.53,0.95,0.95,0.42c3.07-3.81,9.85-7.73,17.16-7.73c8.9,0,14.94,4.55,18.11,11.97c0.42,1.06,0.74,1.06,1.38,0.11
		c4.34-7.84,12.61-12.08,19.81-12.08C540.19,42.99,545.91,53.37,546.01,68.2z"/>
	<path class="st0" d="M322.2,169.68l6.04,0.85c0.64,0.11,0.53,0.85,0.42,1.38c-3.18,9.53-15.25,18.85-29.77,18.85
		c-22.67,0-36.33-18.11-36.33-38.24c0-20.02,13.66-38.03,36.33-38.03c14.51,0,26.48,9.43,29.77,18.96c0.11,0.53,0.42,1.17-0.42,1.27
		l-6.04,0.85c-0.64,0.11-1.17,0.32-1.48-0.42c-1.69-4.34-9.96-12.82-22.03-12.82c-16.74,0-27.65,13.13-27.65,30.19
		c0,17.16,10.91,30.51,27.65,30.51c12.08,0,20.34-8.58,22.03-12.92C321.03,169.37,321.67,169.58,322.2,169.68z"/>
	<path class="st0" d="M334.48,162.48c0-15.57,11.55-28.18,28.6-28.18s28.6,12.6,28.6,28.18s-11.55,28.28-28.6,28.28
		S334.48,178.05,334.48,162.48z M342.32,162.48c0,11.86,7.73,21.71,20.76,21.71c12.92,0,20.87-9.85,20.87-21.71
		c0-11.86-7.94-21.61-20.87-21.61C350.05,140.87,342.32,150.62,342.32,162.48z"/>
	<path class="st0" d="M400.15,189.6v-54.13c0-0.53,0.32-0.85,0.85-0.85h6.14c0.53,0,0.85,0.32,0.85,0.85v7.84
		c0,0.74,0.42,0.95,0.95,0.32c3.28-4.24,11.12-9.32,19.91-9.32c11.76,0,22.03,5.83,22.03,25.53v29.76c0,0.53-0.32,0.85-0.85,0.85
		h-6.04c-0.53,0-0.85-0.32-0.85-0.85v-28.71c0-14.09-6.14-20.02-16.42-20.02c-7.84,0-15.99,5.08-18.75,12.6v36.12
		c0,0.53-0.32,0.85-0.85,0.85H401C400.47,190.45,400.15,190.13,400.15,189.6z"/>
	<path class="st0" d="M461.8,189.6v-54.13c0-0.53,0.32-0.85,0.85-0.85h6.14c0.53,0,0.85,0.32,0.85,0.85v7.84
		c0,0.74,0.42,0.95,0.95,0.32c3.28-4.24,11.12-9.32,19.92-9.32c11.76,0,22.03,5.83,22.03,25.53v29.76c0,0.53-0.32,0.85-0.85,0.85
		h-6.04c-0.53,0-0.85-0.32-0.85-0.85v-28.71c0-14.09-6.14-20.02-16.42-20.02c-7.84,0-16,5.08-18.75,12.6v36.12
		c0,0.53-0.32,0.85-0.85,0.85h-6.14C462.12,190.45,461.8,190.13,461.8,189.6z"/>
	<path class="st0" d="M571.85,164.39c0,0.53-0.32,0.85-0.85,0.85h-42.16c-0.53,0-0.85,0.32-0.85,0.85c0,5.61,5.08,18.11,18.64,18.11
		c11.65,0,15.47-7.31,16.63-9.43c0.21-0.42,0.64-0.64,1.06-0.53l5.72,0.85c0.64,0.11,0.85,0.42,0.64,0.95
		c-3.18,7.84-10.8,14.72-23.94,14.72c-16.84,0-26.91-12.6-26.91-28.28c0-15.57,10.27-28.18,26.48-28.18
		c18.64,0,25.53,15.15,25.53,27.86V164.39z M528.11,158.56c0,0.53,0.32,0.85,0.85,0.85h33.79c0.53,0,0.85-0.32,0.85-0.74
		c0-6.57-3.6-18.22-17.27-18.22C533.61,140.55,528.21,151.15,528.11,158.56z"/>
	<path class="st0" d="M628.1,178.05c-2.12,5.08-9.22,12.71-21.82,12.71c-15.99,0-27.01-12.6-27.01-28.28
		c0-15.57,11.02-28.18,27.01-28.18c12.61,0,19.81,7.52,21.82,12.71c0.21,0.42,0.32,0.95-0.21,1.17l-5.72,0.95
		c-0.53,0.21-0.95,0-1.17-0.32c-1.59-2.97-5.93-7.94-14.62-7.94c-12.29,0-19.28,10.06-19.28,21.61s6.99,21.71,19.28,21.71
		c8.69,0,13.13-5.19,14.62-7.94c0.42-0.53,0.63-0.53,1.17-0.32l5.72,0.95C628.42,177.1,628.31,177.63,628.1,178.05z"/>
	<path class="st0" d="M662.42,188.86c-1.69,1.06-4.98,1.91-8.9,1.91c-11.02,0-10.91-9.85-10.91-23.3v-25.42
		c0-0.53-0.32-0.85-0.85-0.85h-5.51c-0.53,0-0.85-0.32-0.85-0.85v-4.87c0-0.53,0.32-0.85,0.85-0.85h5.51c0.53,0,0.85-0.32,0.85-0.85
		v-11.97c0-0.53,0.21-0.85,0.74-0.95l6.14-0.74c0.53-0.11,0.85,0.32,0.85,0.85v12.82c0,0.53,0.32,0.85,0.85,0.85h10.28
		c0.53,0,0.85,0.32,0.85,0.85v4.87c0,0.53-0.32,0.85-0.85,0.85h-10.28c-0.53,0-0.85,0.32-0.85,0.85v25.42
		c0,11.55,0.21,16.74,5.83,16.74c1.91,0,3.07-0.11,4.77-0.63c0.64-0.21,0.95-0.21,1.06,0.42l0.74,3.81
		C662.84,188.22,662.74,188.65,662.42,188.86z"/>
	<path class="st0" d="M674.07,116.83c0-2.86,2.44-5.3,5.3-5.3c2.97,0,5.3,2.44,5.3,5.3c0,2.86-2.33,5.3-5.3,5.3
		C676.5,122.12,674.07,119.69,674.07,116.83z M676.29,134.62h6.04c0.53,0,0.85,0.32,0.85,0.85v54.13c0,0.53-0.32,0.85-0.85,0.85
		h-6.04c-0.53,0-0.85-0.32-0.85-0.85v-54.13C675.45,134.94,675.76,134.62,676.29,134.62z"/>
	<path class="st0" d="M694.19,162.48c0-15.57,11.55-28.18,28.6-28.18c17.05,0,28.6,12.6,28.6,28.18s-11.55,28.28-28.6,28.28
		C705.74,190.76,694.19,178.05,694.19,162.48z M702.03,162.48c0,11.86,7.73,21.71,20.76,21.71c12.92,0,20.87-9.85,20.87-21.71
		c0-11.86-7.94-21.61-20.87-21.61C709.76,140.87,702.03,150.62,702.03,162.48z"/>
	<path class="st0" d="M759.87,189.6v-54.13c0-0.53,0.32-0.85,0.85-0.85h6.14c0.53,0,0.85,0.32,0.85,0.85v7.84
		c0,0.74,0.42,0.95,0.95,0.32c3.28-4.24,11.12-9.32,19.92-9.32c11.76,0,22.03,5.83,22.03,25.53v29.76c0,0.53-0.32,0.85-0.85,0.85
		h-6.04c-0.53,0-0.85-0.32-0.85-0.85v-28.71c0-14.09-6.14-20.02-16.42-20.02c-7.84,0-16,5.08-18.75,12.6v36.12
		c0,0.53-0.32,0.85-0.85,0.85h-6.14C760.18,190.45,759.87,190.13,759.87,189.6z"/>
	<path class="st0" d="M817.28,172.12c0-0.64,0.11-0.95,1.06-1.17l5.19-0.74c0.74-0.21,1.17,0.11,1.17,0.95
		c0,7.94,6.46,13.03,16.84,13.03c8.69,0,12.82-3.81,12.82-9c0-6.14-5.3-8.05-17.48-11.44c-12.29-3.39-17.37-7.63-17.37-15.47
		c0-7.84,7.41-14.09,19.28-14.09c13.24,0,20.76,6.67,20.76,16.1c0,0.74-0.11,0.95-0.85,1.06l-5.51,0.85
		c-0.74,0.11-1.06-0.21-1.06-1.06c0-7.1-4.87-10.38-13.13-10.38c-7.63,0-11.76,3.71-11.76,7.84c0,4.34,1.8,6.46,13.56,9.85
		c12.71,3.6,21.29,7.31,21.29,17.27c0,9.22-7.42,15.04-20.23,15.04C828.61,190.76,817.28,184.83,817.28,172.12z"/>
</g>
<path class="st1" d="M188.25,128c-0.54-0.91-1.4-1.59-2.43-1.83c-2.33-0.55-4.84-0.87-7.52-0.87c-21.48,0-36.49,16.68-36.49,40.57
	c0,7.63,1.51,14.51,4.24,20.39c0.66,1.43,2.07,2.35,3.64,2.35h67.4c3.08,0,4.99-3.35,3.42-6L188.25,128z"/>
<path class="st2" d="M112.42,165.87c0-34.29,21.68-61.21,52.29-67.51c2.64-0.54,3.91-3.58,2.54-5.89L114.96,3.95
	c-1.54-2.61-5.31-2.61-6.85,0L2.56,182.61c-1.57,2.65,0.34,6,3.42,6h104.64c2.59,0,4.45-2.42,3.85-4.94
	C113.14,178.03,112.42,172.07,112.42,165.87z"/>
</svg>
