<?xml version="1.0" encoding="utf-8"?>
<!-- Generator: Adobe Illustrator 25.0.0, SVG Export Plug-In . SVG Version: 6.00 Build 0)  -->
<svg version="1.1" id="Layer_1" xmlns="http://www.w3.org/2000/svg" xmlns:xlink="http://www.w3.org/1999/xlink" x="0px" y="0px"
	 viewBox="0 0 870.6 246.38" style="enable-background:new 0 0 870.6 246.38;" xml:space="preserve">
<style type="text/css">
	.st0{fill:#002A42;}
	.st1{fill:#5ABD78;}
	.st2{fill:#1B5EAC;}
</style>
<g>
	<g>
		<path class="st0" d="M299.88,23.51h3.72c0.53,0,1.06,0.21,1.28,0.74l31.27,73.81c0.32,0.74,0,1.28-0.74,1.28h-6.27
			c-0.53,0-1.06-0.21-1.28-0.74l-6.7-15.74c-0.21-0.53-0.64-0.74-1.17-0.74H283.5c-0.53,0-1.06,0.21-1.28,0.74l-6.7,15.74
			c-0.21,0.53-0.64,0.74-1.17,0.74h-6.27c-0.74,0-1.06-0.53-0.74-1.28l31.27-73.81C298.81,23.72,299.34,23.51,299.88,23.51z
			 M287.11,74.24h29.25c0.74,0,1.06-0.53,0.74-1.28l-14.57-34.99c-0.32-0.74-1.17-0.74-1.49,0l-14.68,34.99
			C286.05,73.71,286.37,74.24,287.11,74.24z"/>
		<path class="st0" d="M345.82,19.26h6.17c0.53,0,0.85,0.32,0.85,0.85v78.38c0,0.53-0.32,0.85-0.85,0.85h-6.17
			c-0.53,0-0.85-0.32-0.85-0.85V20.11C344.96,19.58,345.28,19.26,345.82,19.26z"/>
		<path class="st0" d="M407.07,67.86v30.63c0,0.53-0.32,0.85-0.85,0.85h-6.06c-0.53,0-0.85-0.32-0.85-0.85v-5.11
			c0-0.74-0.53-0.96-0.96-0.43c-3.72,3.72-11.8,6.7-18.29,6.7c-11.91,0-17.65-7.13-17.65-15.63c0-14.36,14.68-20.1,36.05-20.31
			c0.64,0,0.85-0.32,0.85-0.96c0-11.27-6.27-13.19-13.19-13.19c-5.53,0-13.51,2.55-16.91,4.57c-0.53,0.32-0.85,0.11-1.06-0.43
			l-1.06-4.04c-0.32-0.53-0.11-0.64,0.32-0.96c3.83-2.55,12.66-5.74,20.52-5.74C406.75,42.97,407.07,57.23,407.07,67.86z M398.88,87
			c0.43-0.43,0.43-0.64,0.43-0.96V70.2c0-0.53-0.32-0.85-0.85-0.85c-12.44,0-27.97,3.08-27.97,14.14c0,6.06,4.68,10,11.91,10
			C386.33,93.49,393.14,92,398.88,87z"/>
		<path class="st0" d="M453.55,46.7l-1.38,5.85c-0.11,0.64-0.64,0.74-1.06,0.53c-1.7-1.06-4.47-2.34-9.04-2.34
			c-7.44,0-16.06,4.68-16.06,16.59v31.16c0,0.53-0.32,0.85-0.85,0.85h-6.17c-0.53,0-0.85-0.32-0.85-0.85V44.14
			c0-0.53,0.32-0.85,0.85-0.85h6.17c0.53,0,0.85,0.32,0.85,0.85v6.59c0,0.74,0.53,0.96,0.96,0.32c4.47-5.85,10.74-8.08,15.95-8.08
			c4.68,0,8.51,1.6,10.1,2.55C453.55,45.85,453.65,46.27,453.55,46.7z"/>
		<path class="st0" d="M548.62,68.29v30.2c0,0.53-0.32,0.85-0.85,0.85h-6.06c-0.53,0-0.85-0.32-0.85-0.85v-30.2
			c0-12.23-4.68-18.72-14.78-18.72c-10,0-16.7,8.19-17.02,16.38v32.54c0,0.53-0.32,0.85-0.85,0.85h-6.06
			c-0.53,0-0.85-0.32-0.85-0.85v-30.2c0-7.34-2.66-18.72-14.68-18.72c-9.47,0-15.31,6.38-16.38,11.7v37.22
			c0,0.53-0.32,0.85-0.85,0.85h-6.06c-0.53,0-0.85-0.32-0.85-0.85V44.14c0-0.53,0.32-0.85,0.85-0.85h6.06
			c0.53,0,0.85,0.32,0.85,0.85v6.17c0,0.74,0.53,0.96,0.96,0.43c3.08-3.83,9.89-7.76,17.23-7.76c8.93,0,15,4.57,18.19,12.02
			c0.43,1.06,0.74,1.06,1.38,0.11c4.36-7.87,12.66-12.12,19.89-12.12C542.77,42.97,548.51,53.4,548.62,68.29z"/>
		<path class="st0" d="M323.91,170.17l6.06,0.85c0.64,0.11,0.53,0.85,0.43,1.38c-3.19,9.57-15.31,18.93-29.88,18.93
			c-22.76,0-36.48-18.19-36.48-38.39c0-20.1,13.72-38.18,36.48-38.18c14.57,0,26.59,9.47,29.88,19.04c0.11,0.53,0.43,1.17-0.43,1.28
			l-6.06,0.85c-0.64,0.11-1.17,0.32-1.49-0.43c-1.7-4.36-10-12.87-22.12-12.87c-16.8,0-27.76,13.19-27.76,30.31
			c0,17.23,10.95,30.63,27.76,30.63c12.12,0,20.42-8.61,22.12-12.97C322.74,169.85,323.38,170.07,323.91,170.17z"/>
		<path class="st0" d="M336.24,162.94c0-15.63,11.59-28.29,28.71-28.29c17.12,0,28.71,12.65,28.71,28.29s-11.59,28.4-28.71,28.4
			C347.84,191.34,336.24,178.57,336.24,162.94z M344.11,162.94c0,11.91,7.76,21.8,20.84,21.8c12.97,0,20.95-9.89,20.95-21.8
			c0-11.91-7.98-21.69-20.95-21.69C351.88,141.25,344.11,151.03,344.11,162.94z"/>
		<path class="st0" d="M402.18,190.17v-54.34c0-0.53,0.32-0.85,0.85-0.85h6.17c0.53,0,0.85,0.32,0.85,0.85v7.87
			c0,0.75,0.43,0.96,0.96,0.32c3.3-4.25,11.17-9.36,19.99-9.36c11.8,0,22.12,5.85,22.12,25.63v29.88c0,0.53-0.32,0.85-0.85,0.85
			h-6.06c-0.53,0-0.85-0.32-0.85-0.85v-28.82c0-14.14-6.17-20.1-16.48-20.1c-7.87,0-16.06,5.1-18.82,12.65v36.27
			c0,0.53-0.32,0.85-0.85,0.85h-6.17C402.5,191.02,402.18,190.7,402.18,190.17z"/>
		<path class="st0" d="M464.07,190.17v-54.34c0-0.53,0.32-0.85,0.85-0.85h6.17c0.53,0,0.85,0.32,0.85,0.85v7.87
			c0,0.75,0.43,0.96,0.96,0.32c3.3-4.25,11.17-9.36,19.99-9.36c11.8,0,22.12,5.85,22.12,25.63v29.88c0,0.53-0.32,0.85-0.85,0.85
			h-6.06c-0.53,0-0.85-0.32-0.85-0.85v-28.82c0-14.14-6.17-20.1-16.48-20.1c-7.87,0-16.06,5.1-18.82,12.65v36.27
			c0,0.53-0.32,0.85-0.85,0.85h-6.17C464.39,191.02,464.07,190.7,464.07,190.17z"/>
		<path class="st0" d="M574.57,164.86c0,0.53-0.32,0.85-0.85,0.85h-42.33c-0.53,0-0.85,0.32-0.85,0.85c0,5.64,5.1,18.19,18.72,18.19
			c11.7,0,15.53-7.34,16.7-9.46c0.21-0.43,0.64-0.64,1.06-0.53l5.74,0.85c0.64,0.11,0.85,0.43,0.64,0.96
			c-3.19,7.87-10.85,14.78-24.04,14.78c-16.91,0-27.01-12.65-27.01-28.4c0-15.63,10.32-28.29,26.59-28.29
			c18.72,0,25.63,15.21,25.63,27.97V164.86z M530.64,159.01c0,0.53,0.32,0.85,0.85,0.85h33.93c0.53,0,0.85-0.32,0.85-0.75
			c0-6.59-3.62-18.29-17.33-18.29C536.17,140.93,530.75,151.56,530.64,159.01z"/>
		<path class="st0" d="M631.04,178.57c-2.13,5.11-9.25,12.76-21.91,12.76c-16.06,0-27.12-12.65-27.12-28.4
			c0-15.63,11.06-28.29,27.12-28.29c12.66,0,19.89,7.55,21.91,12.76c0.21,0.43,0.32,0.96-0.21,1.17l-5.74,0.96
			c-0.53,0.21-0.96,0-1.17-0.32c-1.6-2.98-5.96-7.98-14.68-7.98c-12.34,0-19.36,10.1-19.36,21.69s7.02,21.8,19.36,21.8
			c8.72,0,13.19-5.21,14.68-7.98c0.42-0.53,0.64-0.53,1.17-0.32l5.74,0.96C631.36,177.62,631.25,178.15,631.04,178.57z"/>
		<path class="st0" d="M665.49,189.42c-1.7,1.06-5,1.91-8.93,1.91c-11.06,0-10.95-9.89-10.95-23.4v-25.52
			c0-0.53-0.32-0.85-0.85-0.85h-5.53c-0.53,0-0.85-0.32-0.85-0.85v-4.89c0-0.53,0.32-0.85,0.85-0.85h5.53
			c0.53,0,0.85-0.32,0.85-0.85V122.1c0-0.53,0.21-0.85,0.75-0.96l6.17-0.74c0.53-0.11,0.85,0.32,0.85,0.85v12.87
			c0,0.53,0.32,0.85,0.85,0.85h10.32c0.53,0,0.85,0.32,0.85,0.85v4.89c0,0.53-0.32,0.85-0.85,0.85h-10.32
			c-0.53,0-0.85,0.32-0.85,0.85v25.52c0,11.59,0.21,16.8,5.85,16.8c1.91,0,3.08-0.11,4.79-0.64c0.64-0.21,0.96-0.21,1.06,0.42
			l0.74,3.83C665.92,188.78,665.81,189.21,665.49,189.42z"/>
		<path class="st0" d="M677.19,117.1c0-2.87,2.45-5.32,5.32-5.32c2.98,0,5.32,2.45,5.32,5.32c0,2.87-2.34,5.32-5.32,5.32
			C679.63,122.42,677.19,119.98,677.19,117.1z M679.42,134.97h6.06c0.53,0,0.85,0.32,0.85,0.85v54.34c0,0.53-0.32,0.85-0.85,0.85
			h-6.06c-0.53,0-0.85-0.32-0.85-0.85v-54.34C678.57,135.29,678.89,134.97,679.42,134.97z"/>
		<path class="st0" d="M697.39,162.94c0-15.63,11.59-28.29,28.71-28.29c17.12,0,28.71,12.65,28.71,28.29s-11.59,28.4-28.71,28.4
			C708.99,191.34,697.39,178.57,697.39,162.94z M705.26,162.94c0,11.91,7.76,21.8,20.84,21.8c12.98,0,20.95-9.89,20.95-21.8
			c0-11.91-7.98-21.69-20.95-21.69C713.03,141.25,705.26,151.03,705.26,162.94z"/>
		<path class="st0" d="M763.33,190.17v-54.34c0-0.53,0.32-0.85,0.85-0.85h6.17c0.53,0,0.85,0.32,0.85,0.85v7.87
			c0,0.75,0.43,0.96,0.96,0.32c3.3-4.25,11.17-9.36,19.99-9.36c11.8,0,22.12,5.85,22.12,25.63v29.88c0,0.53-0.32,0.85-0.85,0.85
			h-6.06c-0.53,0-0.85-0.32-0.85-0.85v-28.82c0-14.14-6.17-20.1-16.48-20.1c-7.87,0-16.06,5.1-18.82,12.65v36.27
			c0,0.53-0.32,0.85-0.85,0.85h-6.17C763.65,191.02,763.33,190.7,763.33,190.17z"/>
		<path class="st0" d="M820.97,172.62c0-0.64,0.11-0.96,1.06-1.17l5.21-0.75c0.75-0.21,1.17,0.11,1.17,0.96
			c0,7.98,6.49,13.08,16.91,13.08c8.72,0,12.87-3.83,12.87-9.04c0-6.17-5.32-8.08-17.55-11.49c-12.34-3.4-17.44-7.66-17.44-15.53
			c0-7.87,7.44-14.14,19.36-14.14c13.29,0,20.84,6.7,20.84,16.16c0,0.75-0.11,0.96-0.85,1.06l-5.53,0.85
			c-0.75,0.11-1.06-0.21-1.06-1.06c0-7.13-4.89-10.42-13.19-10.42c-7.66,0-11.8,3.72-11.8,7.87c0,4.36,1.81,6.49,13.61,9.89
			c12.76,3.62,21.38,7.34,21.38,17.34c0,9.25-7.44,15.1-20.31,15.1C832.35,191.34,820.97,185.38,820.97,172.62z"/>
	</g>
</g>
<path class="st1" d="M189.43,128.32c-0.54-0.91-1.41-1.6-2.44-1.84c-2.34-0.55-4.86-0.87-7.55-0.87
	c-21.57,0-36.63,16.75-36.63,40.73c0,7.66,1.52,14.57,4.25,20.47c0.66,1.43,2.08,2.36,3.66,2.36h67.67c3.09,0,5.01-3.36,3.44-6.02
	L189.43,128.32z"/>
<path class="st2" d="M113.3,166.34c0-34.43,21.77-61.45,52.5-67.78c2.65-0.54,3.92-3.59,2.55-5.92l-52.5-88.86
	c-1.55-2.62-5.33-2.62-6.88,0L3,183.15c-1.57,2.66,0.35,6.02,3.44,6.02h105.05c2.6,0,4.47-2.43,3.87-4.96
	C114.02,178.55,113.3,172.57,113.3,166.34z"/>
<g>
	<g>
		<path class="st0" d="M268.74,238.2l1.66-1.9c1.57,1.62,3.74,2.69,6,2.69c2.85,0,4.54-1.42,4.54-3.53c0-2.22-1.57-2.93-3.63-3.83
			l-3.12-1.38c-2.03-0.87-4.4-2.4-4.4-5.6c0-3.32,2.89-5.77,6.84-5.77c2.58,0,4.87,1.12,6.4,2.69l-1.47,1.78
			c-1.33-1.26-2.93-2.04-4.93-2.04c-2.44,0-4.05,1.23-4.05,3.17c0,2.09,1.9,2.88,3.6,3.6l3.1,1.34c2.52,1.08,4.48,2.58,4.48,5.81
			c0,3.43-2.84,6.18-7.41,6.18C273.29,241.43,270.64,240.18,268.74,238.2z"/>
		<path class="st0" d="M287.22,233c0-5.24,3.53-8.47,7.24-8.47c4.11,0,6.43,2.95,6.43,7.56c0,0.58-0.05,1.15-0.13,1.55h-10.84
			c0.19,3.41,2.28,5.62,5.35,5.62c1.54,0,2.81-0.5,4.01-1.29l0.98,1.79c-1.41,0.92-3.13,1.67-5.32,1.67
			C290.63,241.43,287.22,238.29,287.22,233z M298.47,231.68c0-3.23-1.45-4.98-3.97-4.98c-2.26,0-4.29,1.82-4.62,4.98H298.47z"/>
		<path class="st0" d="M304.31,233c0-5.37,3.63-8.47,7.75-8.47c2.11,0,3.58,0.87,4.71,1.89l-1.39,1.8
			c-0.94-0.85-1.93-1.42-3.19-1.42c-2.92,0-5.05,2.51-5.05,6.2c0,3.69,2.02,6.16,4.98,6.16c1.47,0,2.78-0.71,3.78-1.6l1.18,1.83
			c-1.45,1.29-3.27,2.05-5.21,2.05C307.58,241.43,304.31,238.33,304.31,233z"/>
		<path class="st0" d="M321.06,235.13v-10.2h2.73v9.85c0,3,0.91,4.28,3.04,4.28c1.65,0,2.79-0.82,4.31-2.71v-11.42h2.73v16.1h-2.25
			l-0.23-2.52h-0.09c-1.49,1.76-3.1,2.92-5.31,2.92C322.59,241.43,321.06,239.24,321.06,235.13z"/>
		<path class="st0" d="M339.97,224.93h2.25l0.23,2.93h0.09c1.12-2.04,2.77-3.33,4.58-3.33c0.71,0,1.21,0.09,1.72,0.33l-0.51,2.39
			c-0.55-0.17-0.92-0.27-1.56-0.27c-1.36,0-2.99,0.98-4.07,3.7v10.34h-2.73V224.93z"/>
		<path class="st0" d="M350.6,233c0-5.24,3.53-8.47,7.24-8.47c4.11,0,6.43,2.95,6.43,7.56c0,0.58-0.05,1.15-0.13,1.55h-10.84
			c0.19,3.41,2.28,5.62,5.35,5.62c1.54,0,2.81-0.5,4.01-1.29l0.98,1.79c-1.41,0.92-3.13,1.67-5.32,1.67
			C354.01,241.43,350.6,238.29,350.6,233z M361.85,231.68c0-3.23-1.45-4.98-3.97-4.98c-2.26,0-4.29,1.82-4.62,4.98H361.85z"/>
		<path class="st0" d="M376.43,219.29h6.21c4.87,0,8.16,1.64,8.16,6.4c0,4.58-3.27,6.71-8.03,6.71h-3.57v8.62h-2.77V219.29z
			 M382.43,230.16c3.8,0,5.62-1.38,5.62-4.47c0-3.14-1.93-4.16-5.75-4.16h-3.09v8.63H382.43z"/>
		<path class="st0" d="M395.59,224.93h2.25l0.23,2.93h0.09c1.12-2.04,2.77-3.33,4.58-3.33c0.71,0,1.21,0.09,1.72,0.33l-0.51,2.39
			c-0.55-0.17-0.92-0.27-1.56-0.27c-1.36,0-2.99,0.98-4.07,3.7v10.34h-2.73V224.93z"/>
		<path class="st0" d="M406.22,233c0-5.37,3.51-8.47,7.46-8.47c3.95,0,7.46,3.1,7.46,8.47c0,5.33-3.51,8.43-7.46,8.43
			C409.74,241.43,406.22,238.33,406.22,233z M418.33,233c0-3.69-1.88-6.2-4.65-6.2c-2.77,0-4.65,2.51-4.65,6.2
			c0,3.69,1.88,6.16,4.65,6.16C416.46,239.16,418.33,236.69,418.33,233z"/>
		<path class="st0" d="M425.95,236.05v-8.9h-2.4v-2.06l2.52-0.16l0.33-4.52h2.28v4.52h4.36v2.22h-4.36v8.95
			c0,1.97,0.63,3.11,2.49,3.11c0.57,0,1.31-0.22,1.83-0.43l0.53,2.06c-0.9,0.31-1.98,0.6-2.99,0.6
			C427.12,241.43,425.95,239.26,425.95,236.05z"/>
		<path class="st0" d="M435.68,233c0-5.24,3.53-8.47,7.24-8.47c4.11,0,6.43,2.95,6.43,7.56c0,0.58-0.05,1.15-0.13,1.55h-10.84
			c0.2,3.41,2.28,5.62,5.35,5.62c1.54,0,2.81-0.5,4.01-1.29l0.98,1.79c-1.41,0.92-3.13,1.67-5.32,1.67
			C439.1,241.43,435.68,238.29,435.68,233z M446.94,231.68c0-3.23-1.45-4.98-3.97-4.98c-2.26,0-4.29,1.82-4.62,4.98H446.94z"/>
		<path class="st0" d="M452.77,233c0-5.37,3.63-8.47,7.75-8.47c2.11,0,3.58,0.87,4.71,1.89l-1.39,1.8c-0.94-0.85-1.93-1.42-3.2-1.42
			c-2.92,0-5.05,2.51-5.05,6.2c0,3.69,2.02,6.16,4.98,6.16c1.47,0,2.78-0.71,3.78-1.6l1.18,1.83c-1.45,1.29-3.27,2.05-5.21,2.05
			C456.04,241.43,452.77,238.33,452.77,233z"/>
		<path class="st0" d="M469.89,236.05v-8.9h-2.4v-2.06l2.52-0.16l0.33-4.52h2.28v4.52h4.36v2.22h-4.36v8.95
			c0,1.97,0.63,3.11,2.49,3.11c0.57,0,1.31-0.22,1.83-0.43l0.53,2.06c-0.9,0.31-1.98,0.6-2.99,0.6
			C471.05,241.43,469.89,239.26,469.89,236.05z"/>
		<path class="st0" d="M480.77,219.86c0-1.07,0.82-1.76,1.88-1.76s1.88,0.69,1.88,1.76c0,1.03-0.82,1.76-1.88,1.76
			S480.77,220.89,480.77,219.86z M481.27,224.93h2.72v16.1h-2.72V224.93z"/>
		<path class="st0" d="M488.89,233c0-5.37,3.51-8.47,7.46-8.47s7.46,3.1,7.46,8.47c0,5.33-3.51,8.43-7.46,8.43
			S488.89,238.33,488.89,233z M500.99,233c0-3.69-1.88-6.2-4.65-6.2s-4.65,2.51-4.65,6.2c0,3.69,1.88,6.16,4.65,6.16
			S500.99,236.69,500.99,233z"/>
		<path class="st0" d="M508.7,224.93h2.25l0.23,2.32h0.09c1.53-1.51,3.19-2.72,5.4-2.72c3.39,0,4.92,2.19,4.92,6.3v10.2h-2.72v-9.85
			c0-3-0.91-4.28-3.04-4.28c-1.65,0-2.79,0.84-4.4,2.47v11.66h-2.72V224.93z"/>
		<path class="st0" d="M526.93,239.36c0-1.25,0.89-2.11,1.97-2.11s1.97,0.85,1.97,2.11c0,1.21-0.89,2.06-1.97,2.06
			S526.93,240.57,526.93,239.36z"/>
		<path class="st0" d="M543.28,219.29h2.77v19.4h9.49v2.34h-12.26V219.29z"/>
		<path class="st0" d="M558.2,233c0-5.37,3.51-8.47,7.46-8.47s7.46,3.1,7.46,8.47c0,5.33-3.51,8.43-7.46,8.43
			S558.2,238.33,558.2,233z M570.31,233c0-3.69-1.88-6.2-4.65-6.2s-4.65,2.51-4.65,6.2c0,3.69,1.88,6.16,4.65,6.16
			S570.31,236.69,570.31,233z"/>
		<path class="st0" d="M576.82,233c0-5.37,3.63-8.47,7.75-8.47c2.11,0,3.58,0.87,4.71,1.89l-1.39,1.8c-0.94-0.85-1.93-1.42-3.2-1.42
			c-2.92,0-5.05,2.51-5.05,6.2c0,3.69,2.02,6.16,4.98,6.16c1.47,0,2.78-0.71,3.78-1.6l1.18,1.83c-1.45,1.29-3.27,2.05-5.21,2.05
			C580.08,241.43,576.82,238.33,576.82,233z"/>
		<path class="st0" d="M592.46,236.85c0-3.51,3.03-5.26,9.89-6.01c-0.01-2.07-0.69-4.07-3.32-4.07c-1.86,0-3.54,0.88-4.8,1.73
			l-1.07-1.87c1.48-0.97,3.74-2.1,6.33-2.1c3.93,0,5.59,2.61,5.59,6.62v9.88h-2.25l-0.23-1.92h-0.09c-1.54,1.28-3.33,2.32-5.33,2.32
			C594.48,241.43,592.46,239.75,592.46,236.85z M602.35,237.1v-4.47c-5.4,0.65-7.22,1.97-7.22,4.03c0,1.83,1.24,2.57,2.82,2.57
			C599.5,239.23,600.79,238.47,602.35,237.1z"/>
		<path class="st0" d="M610.81,237.8v-20.37h2.72v20.57c0,0.83,0.36,1.16,0.76,1.16c0.16,0,0.29,0,0.6-0.07l0.37,2.08
			c-0.39,0.14-0.85,0.25-1.57,0.25C611.65,241.43,610.81,240.12,610.81,237.8z"/>
		<path class="st0" d="M627.47,219.29h6.21c4.87,0,8.16,1.64,8.16,6.4c0,4.58-3.27,6.71-8.03,6.71h-3.58v8.62h-2.77V219.29z
			 M633.46,230.16c3.8,0,5.62-1.38,5.62-4.47c0-3.14-1.93-4.16-5.75-4.16h-3.09v8.63H633.46z"/>
		<path class="st0" d="M646.63,224.93h2.25l0.23,2.93h0.09c1.12-2.04,2.77-3.33,4.58-3.33c0.71,0,1.21,0.09,1.72,0.33l-0.51,2.39
			c-0.55-0.17-0.92-0.27-1.56-0.27c-1.36,0-2.98,0.98-4.07,3.7v10.34h-2.72V224.93z"/>
		<path class="st0" d="M657.26,233c0-5.37,3.51-8.47,7.46-8.47s7.46,3.1,7.46,8.47c0,5.33-3.51,8.43-7.46,8.43
			S657.26,238.33,657.26,233z M669.37,233c0-3.69-1.88-6.2-4.65-6.2s-4.65,2.51-4.65,6.2c0,3.69,1.88,6.16,4.65,6.16
			S669.37,236.69,669.37,233z"/>
		<path class="st0" d="M675.27,225.08l2.31-0.16h6.01v2.22h-8.32V225.08z M677.46,222.38c0-3.27,1.49-5.35,4.72-5.35
			c0.98,0,1.95,0.25,2.67,0.55l-0.57,2.08c-0.61-0.28-1.25-0.42-1.82-0.42c-1.52,0-2.27,1.06-2.27,3.14v18.64h-2.73V222.38z"/>
		<path class="st0" d="M685.82,233c0-5.24,3.53-8.47,7.24-8.47c4.11,0,6.43,2.95,6.43,7.56c0,0.58-0.05,1.15-0.13,1.55h-10.84
			c0.2,3.41,2.28,5.62,5.35,5.62c1.54,0,2.81-0.5,4.01-1.29l0.98,1.79c-1.41,0.92-3.13,1.67-5.32,1.67
			C689.24,241.43,685.82,238.29,685.82,233z M697.08,231.68c0-3.23-1.45-4.98-3.97-4.98c-2.26,0-4.29,1.82-4.62,4.98H697.08z"/>
		<path class="st0" d="M702.33,239.19l1.34-1.79c1.4,1.13,2.82,1.91,4.75,1.91c2.11,0,3.16-1.13,3.16-2.5c0-1.66-1.9-2.39-3.68-3.05
			c-2.26-0.82-4.8-1.93-4.8-4.65c0-2.58,2.06-4.57,5.55-4.57c2,0,3.76,0.82,5.01,1.81l-1.3,1.75c-1.11-0.82-2.25-1.43-3.67-1.43
			c-2.03,0-2.96,1.08-2.96,2.31c0,1.53,1.75,2.11,3.57,2.79c2.32,0.88,4.91,1.82,4.91,4.89c0,2.61-2.08,4.79-5.88,4.79
			C706.05,241.43,703.84,240.46,702.33,239.19z"/>
		<path class="st0" d="M716.87,239.19l1.34-1.79c1.4,1.13,2.82,1.91,4.75,1.91c2.11,0,3.16-1.13,3.16-2.5c0-1.66-1.9-2.39-3.68-3.05
			c-2.26-0.82-4.8-1.93-4.8-4.65c0-2.58,2.06-4.57,5.55-4.57c2,0,3.76,0.82,5.01,1.81l-1.3,1.75c-1.11-0.82-2.25-1.43-3.67-1.43
			c-2.03,0-2.96,1.08-2.96,2.31c0,1.53,1.75,2.11,3.57,2.79c2.32,0.88,4.91,1.82,4.91,4.89c0,2.61-2.08,4.79-5.88,4.79
			C720.59,241.43,718.38,240.46,716.87,239.19z"/>
		<path class="st0" d="M732.7,219.86c0-1.07,0.82-1.76,1.88-1.76s1.88,0.69,1.88,1.76c0,1.03-0.82,1.76-1.88,1.76
			S732.7,220.89,732.7,219.86z M733.2,224.93h2.72v16.1h-2.72V224.93z"/>
		<path class="st0" d="M740.82,233c0-5.37,3.51-8.47,7.46-8.47s7.46,3.1,7.46,8.47c0,5.33-3.51,8.43-7.46,8.43
			S740.82,238.33,740.82,233z M752.93,233c0-3.69-1.88-6.2-4.65-6.2s-4.65,2.51-4.65,6.2c0,3.69,1.88,6.16,4.65,6.16
			S752.93,236.69,752.93,233z"/>
		<path class="st0" d="M760.63,224.93h2.25l0.23,2.32h0.09c1.53-1.51,3.19-2.72,5.4-2.72c3.39,0,4.92,2.19,4.92,6.3v10.2h-2.72
			v-9.85c0-3-0.91-4.28-3.04-4.28c-1.65,0-2.79,0.84-4.4,2.47v11.66h-2.72V224.93z"/>
		<path class="st0" d="M778.42,236.85c0-3.51,3.03-5.26,9.89-6.01c-0.01-2.07-0.69-4.07-3.32-4.07c-1.86,0-3.54,0.88-4.8,1.73
			l-1.07-1.87c1.48-0.97,3.74-2.1,6.33-2.1c3.93,0,5.59,2.61,5.59,6.62v9.88h-2.25l-0.23-1.92h-0.09c-1.54,1.28-3.33,2.32-5.33,2.32
			C780.44,241.43,778.42,239.75,778.42,236.85z M788.31,237.1v-4.47c-5.4,0.65-7.22,1.97-7.22,4.03c0,1.83,1.24,2.57,2.82,2.57
			C785.47,239.23,786.75,238.47,788.31,237.1z"/>
		<path class="st0" d="M796.78,237.8v-20.37h2.72v20.57c0,0.83,0.36,1.16,0.76,1.16c0.16,0,0.29,0,0.6-0.07l0.37,2.08
			c-0.39,0.14-0.85,0.25-1.57,0.25C797.62,241.43,796.78,240.12,796.78,237.8z"/>
		<path class="st0" d="M804.11,239.19l1.34-1.79c1.4,1.13,2.82,1.91,4.75,1.91c2.11,0,3.16-1.13,3.16-2.5c0-1.66-1.9-2.39-3.68-3.05
			c-2.26-0.82-4.8-1.93-4.8-4.65c0-2.58,2.06-4.57,5.55-4.57c2,0,3.76,0.82,5.01,1.81l-1.3,1.75c-1.11-0.82-2.25-1.43-3.67-1.43
			c-2.03,0-2.96,1.08-2.96,2.31c0,1.53,1.75,2.11,3.57,2.79c2.32,0.88,4.91,1.82,4.91,4.89c0,2.61-2.08,4.79-5.88,4.79
			C807.82,241.43,805.62,240.46,804.11,239.19z"/>
		<path class="st0" d="M819.87,239.36c0-1.25,0.89-2.11,1.97-2.11s1.97,0.85,1.97,2.11c0,1.21-0.89,2.06-1.97,2.06
			S819.87,240.57,819.87,239.36z"/>
	</g>
</g>
</svg>
